<svg xmlns="http://www.w3.org/2000/svg" viewBox="4 4 42 42" width="100px" height="100px">
  <path fill-rule="evenodd" d="M 25, 4 C 13.402, 4 4, 13.402 4, 25 C 4, 36.598 13.402, 46 25, 46 C 36.598, 46 46, 36.598 46, 25 C 46, 13.402 36.598, 4 25, 4 Z M 17.989 16.037 C 20.827 18.167 23.880 22.487 25.000 24.805 c 1.121 -2.318 4.173 -6.638 7.011 -8.768 c 2.048 -1.537 5.365 -2.727 5.365 1.058 c 0.000 0.756 -0.434 6.350 -0.687 7.258 c -0.883 3.157 -4.103 3.962 -6.967 3.475 c 5.006 0.852 6.279 3.674 3.529 6.496 c -5.223 5.360 -7.507 -1.345 -8.092 -3.063 c -0.107 -0.315 -0.157 -0.462 -0.158 -0.337 c -0.001 -0.125 -0.051 0.022 -0.158 0.337 c -0.585 1.718 -2.869 8.422 -8.092 3.063 c -2.750 -2.822 -1.477 -5.644 3.529 -6.496 c -2.864 0.487 -6.083 -0.318 -6.967 -3.475 c -0.254 -0.908 -0.687 -6.502 -0.687 -7.258 C 12.624 13.310 15.942 14.500 17.989 16.037 L 17.989 16.037 z" />
</svg>