<svg xmlns="http://www.w3.org/2000/svg" viewBox="4 4 42 42" width="100px" height="100px">
  <path d="M 46, 25 C 46, 13.402 36.598, 4 25, 4 C 13.402, 4 4, 13.402 4, 25 C 4, 36.598 13.402, 46 25, 46 C 36.598, 46 46, 36.598 46, 25 Z M 13.085938, 13 L 21.023438, 13 L 26.660156, 21.009766 L 33.5, 13 L 36, 13 L 27.789062, 22.613281 L 37.914062, 37 L 29.978516, 37 L 23.4375, 27.707031 L 15.5, 37 L 13, 37 L 22.308594, 26.103516 L 13.085938, 13 Z M 16.914062, 15 L 31.021484, 35 L 34.085938, 35 L 19.978516, 15 L 16.914062, 15 Z"/>
</svg>